<?xml version="1.0" encoding="UTF-8" standalone="no"?>
<!DOCTYPE svg PUBLIC "-//W3C//DTD SVG 1.1//EN" "http://www.w3.org/Graphics/SVG/1.1/DTD/svg11.dtd">
<svg width="100%" height="100%" viewBox="0 0 64 64" version="1.1" xmlns="http://www.w3.org/2000/svg" style="fill-rule:evenodd;clip-rule:evenodd;stroke-linejoin:round;stroke-miterlimit:2;">
    <rect x="0" y="0" width="8" height="8" fill="black" />
    <rect x="0" y="16" width="8" height="8" fill="black" />
    <rect x="0" y="24" width="8" height="8" fill="black" />
    <rect x="0" y="32" width="8" height="8" fill="black" />
    <rect x="0" y="56" width="8" height="8" fill="black"/>
    <rect x="8" y="0" width="8" height="8" fill="black" />
    <rect x="8" y="16" width="8" height="8" fill="black" />
    <rect x="16" y="0" width="8" height="8" fill="black" />
    <rect x="16" y="24" width="8" height="8" fill="black" />
    <rect x="16" y="32" width="8" height="8" fill="black" />
    <rect x="16" y="48" width="8" height="8" fill="black" />
    <rect x="16" y="56" width="8" height="8" fill="black" />
    <rect x="24" y="0" width="8" height="8" fill="black" />
    <rect x="24" y="16" width="8" height="8" fill="black" />
    <rect x="24" y="40" width="8" height="8" fill="black" />
    <rect x="24" y="56" width="8" height="8" fill="black" />
    <rect x="32" y="16" width="8" height="8" fill="black" />
    <rect x="32" y="48" width="8" height="8" fill="black" />
    <rect x="32" y="56" width="8" height="8" fill="black" />
    <rect x="40" y="0" width="8" height="8" fill="black" />
    <rect x="40" y="8" width="8" height="8" fill="black" />
    <rect x="40" y="16" width="8" height="8" fill="black" />
    <rect x="40" y="24" width="8" height="8" fill="black" />
    <rect x="40" y="40" width="8" height="8" fill="black" />
    <rect x="48" y="24" width="8" height="8" fill="black" />
    <rect x="48" y="40" width="8" height="8" fill="black" />
    <rect x="48" y="56" width="8" height="8" fill="black"/>
    <rect x="56" y="8" width="8" height="8" fill="black" />
    <rect x="56" y="16" width="8" height="8" fill="black" />
    <rect x="56" y="48" width="8" height="8" fill="black" />
</svg>
